<svg width="58" height="16" xmlns="http://www.w3.org/2000/svg" fill="none">

 <g>
  <title>Layer 1</title>
  <path id="svg_1" fill="#3594E3" d="m0.29289,7.29289c-0.39052,0.39053 -0.39052,1.02369 0,1.41422l6.36396,6.36399c0.39053,0.3905 1.02369,0.3905 1.41422,0c0.39052,-0.3906 0.39052,-1.0237 0,-1.4142l-5.65686,-5.6569l5.65686,-5.65685c0.39052,-0.39053 0.39052,-1.02369 0,-1.41422c-0.39053,-0.39052 -1.02369,-0.39052 -1.41422,0l-6.36396,6.36396zm56.70711,1.70711c0.5523,0 1,-0.44771 1,-1c0,-0.55228 -0.4477,-1 -1,-1l0,2zm-56,0l56,0l0,-2l-56,0l0,2z"/>
 </g>
</svg>