<svg width="58" height="16" xmlns="http://www.w3.org/2000/svg" fill="none">

 <g>
  <title>Layer 1</title>
  <path opacity="0.4" id="svg_1" fill="#3594E3" d="m1,7c-0.55229,0 -1,0.44772 -1,1c0,0.55228 0.44771,1 1,1l0,-2zm56.7071,1.70711c0.3905,-0.39052 0.3905,-1.02369 0,-1.41421l-6.364,-6.36396c-0.3905,-0.39053 -1.0236,-0.39053 -1.4142,0c-0.3905,0.39052 -0.3905,1.02369 0,1.41421l5.6569,5.65685l-5.6569,5.6569c-0.3905,0.3905 -0.3905,1.0236 0,1.4142c0.3906,0.3905 1.0237,0.3905 1.4142,0l6.364,-6.36399zm-56.7071,0.29289l56,0l0,-2l-56,0l0,2z"/>
 </g>
</svg>